<?xml version="1.0" encoding="UTF-8"?>
<svg id="Layer_2" xmlns="http://www.w3.org/2000/svg" viewBox="0 0 490.39 86.03">
  <defs>
    <style>
      .cls-1 {
        fill: #3c544b;
      }
    </style>
  </defs>
  <g id="Layer_2-2" data-name="Layer_2">
    <g>
      <path class="cls-1" d="M109.08,0s6.35,8.9,6.35,19.39v66.64h17.46V0h-23.82Z"/>
      <path class="cls-1" d="M252.79,0l-31.09,65.73L189.14,0h-24.59s6.35,8.9,6.35,19.39v66.64h9.24V19.29l31.97,66.74h9.24l31.45-66.5v66.5h17.46V0h-17.46Z"/>
      <path class="cls-1" d="M481.15,0v56.99L432.01,0h-24.59s6.35,8.9,6.35,19.39v66.64h9.24V18.47l58.14,67.57h9.24V0h-9.24Z"/>
      <path class="cls-1" d="M77.56,24.97C77.56,5.58,60.55,0,46.76,0H0s6.35,8.9,6.35,19.39v66.64h17.46v-35.53h5.61c7.17,0,12.19,2.35,19.66,12.28l17.5,23.26h22.94l-30.56-37.07c9.91-3.25,18.58-10.58,18.58-23.99ZM23.82,43.16V7.34h16.77c9.64,0,18.65,4.76,18.65,18.19s-9.77,17.63-17.59,17.63h-17.83Z"/>
      <path class="cls-1" d="M325.03,0s8.2,10.29.71,25.34h0l-31.76,60.69h9.8c11.17-18.99,22.03-20.22,33.24-16.33l33.47,16.33h19.8L346.54,0h-21.51ZM320.98,53.15l16.63-31.78,26.8,52.7-43.43-20.92Z"/>
    </g>
  </g>
</svg>